<?xml version="1.0" encoding="UTF-8" standalone="no"?>
<!-- Created with Inkscape (http://www.inkscape.org/) -->

<svg
   xmlns:dc="http://purl.org/dc/elements/1.1/"
   xmlns:cc="http://creativecommons.org/ns#"
   xmlns:rdf="http://www.w3.org/1999/02/22-rdf-syntax-ns#"
   xmlns:svg="http://www.w3.org/2000/svg"
   xmlns="http://www.w3.org/2000/svg"
   xmlns:sodipodi="http://sodipodi.sourceforge.net/DTD/sodipodi-0.dtd"
   xmlns:inkscape="http://www.inkscape.org/namespaces/inkscape"
   version="1.1"
   id="svg2"
   width="933.33331"
   height="933.33331"
   viewBox="0 0 933.33331 933.33331"
   sodipodi:docname="tuxxx_logo.svg"
   inkscape:version="0.92.1 r15371">
  <metadata
     id="metadata8">
    <rdf:RDF>
      <cc:Work
         rdf:about="">
        <dc:format>image/svg+xml</dc:format>
        <dc:type
           rdf:resource="http://purl.org/dc/dcmitype/StillImage" />
        <dc:title />
      </cc:Work>
    </rdf:RDF>
  </metadata>
  <defs
     id="defs6" />
  <sodipodi:namedview
     pagecolor="#ffffff"
     bordercolor="#666666"
     borderopacity="1"
     objecttolerance="10"
     gridtolerance="10"
     guidetolerance="10"
     inkscape:pageopacity="0"
     inkscape:pageshadow="2"
     inkscape:window-width="2880"
     inkscape:window-height="1595"
     id="namedview4"
     showgrid="false"
     inkscape:zoom="2.0228572"
     inkscape:cx="533.62486"
     inkscape:cy="559.70013"
     inkscape:window-x="0"
     inkscape:window-y="25"
     inkscape:window-maximized="1"
     inkscape:current-layer="svg2" />
  <g
     id="g22"
     transform="translate(-2.7964636,-9.7876353)"
     inkscape:export-xdpi="24.080269"
     inkscape:export-ydpi="24.080269">
    <path
       style="fill:#fefefe;stroke-width:1.33333325"
       d="m 402.57682,861.88376 -14.57948,-1.76211 -12.08718,-2.18841 -12.0872,-2.18842 -12.68364,-3.18125 -12.68363,-3.18127 -15.98304,-5.29602 -15.98303,-5.29604 -12,-5.01587 -11.99999,-5.01588 -16,-8.17236 -16,-8.17236 -12.41252,-7.70241 -12.41251,-7.70241 -13.58749,-10.0695 -13.58748,-10.06949 -12.66667,-11.00705 -12.66667,-11.00704 -10.70829,-11.12706 -10.70828,-11.12706 -7.43404,-8.66667 -7.43404,-8.66667 -9.44609,-12.80607 -9.44611,-12.80608 -8.2676,-13.12308 -8.2676,-13.1231 -8.925179,-17.41756 -8.925178,-17.41757 -6.740606,-17.31993 -6.740608,-17.31994 -5.395182,-18.83325 -5.395183,-18.83325 -2.140593,-11.16675 -2.140595,-11.16674 -2.040953,-13.33334 -2.040955,-13.33333 -0.739866,-32.14233 -0.739867,-32.14235 1.571004,-15.85765 1.571004,-15.85767 2.689877,-15.33333 2.689877,-15.33333 2.667004,-10.66667 2.667004,-10.66667 4.025863,-13.03797 4.025861,-13.03799 5.07846,-12.96201 5.07846,-12.96202 6.003898,-12.87438 6.003899,-12.87436 8.297994,-14.45897 8.298,-14.45896 8.71667,-12.66667 8.71667,-12.66666 9.64397,-12 9.64396,-12 11.14368,-11.90082 11.14366,-11.90082 12.59838,-11.22211 12.59836,-11.2221 15.40164,-11.59196 15.40162,-11.59196 12.66667,-7.87447 12.66667,-7.87447 17.93568,-9.08803 17.93568,-9.088025 16.93955,-6.601292 16.93956,-6.60129 16.4581,-4.783064 16.45809,-4.783066 16.66667,-3.319298 16.66666,-3.3193 17.33334,-1.939461 17.33333,-1.93946 26.19206,-0.0128 26.19206,-0.01287 13.80794,1.367194 13.80794,1.367193 16,2.663521 16,2.663522 20,5.414594 19.99999,5.414596 16,6.0131 16,6.0131 19.04035,9.347186 19.04033,9.34719 16.293,10.2094 16.29299,10.2094 11.33333,8.55502 11.33333,8.55501 12.66667,11.00143 12.66667,11.00141 10.13948,10.42857 10.13946,10.42856 8.55222,10 8.5522,10 10.5816,14.54791 10.5816,14.5479 8.5212,14.11876 8.52118,14.11876 7.93707,16.36946 7.93705,16.36946 5.93035,15.34405 5.93034,15.34406 4.73319,16.28648 4.7332,16.28649 3.31929,16.66667 3.31931,16.66666 1.93945,17.33334 1.93947,17.33333 0.0133,27.3415 0.0133,27.34151 -2.01954,17.32516 -2.01953,17.32516 -2.72748,14.4908 -2.72747,14.4908 -5.40549,18.84253 -5.40549,18.84253 -5.67445,14.66667 -5.67447,14.66667 -5.9628,12.74486 -5.9628,12.74486 -8.38545,14.58848 -8.38546,14.58846 -7.75852,11.33334 -7.75852,11.33333 -11.23349,14.12641 -11.23349,14.12641 -13.13758,13.6875 -13.13758,13.68748 -12.02852,10.31485 -12.02854,10.31485 -14.61379,10.82127 -14.61382,10.82125 -14.71952,8.80348 -14.71953,8.80348 -16.21709,7.90452 -16.2171,7.90451 -13.41158,5.22665 -13.4116,5.22667 -13.03799,4.02585 -13.03797,4.02587 -10.66667,2.65558 -10.66666,2.65559 -11.33334,2.07747 -11.33333,2.07746 -17.32516,2.02308 -17.32616,2.0231 -29.34151,-0.1446 -29.3415,-0.1446 z"
       id="path28"
       inkscape:connector-curvature="0" />
    <path
       style="fill:#7aca5e;stroke-width:1.33333325"
       d="m 402.57682,861.88376 -14.57948,-1.76211 -12.08718,-2.18841 -12.0872,-2.18842 -12.68364,-3.18125 -12.68363,-3.18127 -15.98304,-5.29602 -15.98303,-5.29604 -12,-5.01587 -11.99999,-5.01588 -16,-8.17236 -16,-8.17236 -12.41252,-7.70241 -12.41251,-7.70241 -13.58749,-10.0695 -13.58748,-10.06949 -12.66667,-11.00705 -12.66667,-11.00704 -10.70829,-11.12706 -10.70828,-11.12706 -7.43404,-8.66667 -7.43404,-8.66667 -9.44609,-12.80607 -9.44611,-12.80608 -8.2676,-13.12308 -8.2676,-13.1231 -8.925179,-17.41756 -8.925178,-17.41757 -6.740606,-17.31993 -6.740608,-17.31994 -5.395182,-18.83325 -5.395183,-18.83325 -2.140593,-11.16675 -2.140595,-11.16674 -2.040953,-13.33334 -2.040955,-13.33333 -0.739866,-32.14233 -0.739867,-32.14235 1.571004,-15.85765 1.571004,-15.85767 2.689877,-15.33333 2.689877,-15.33333 2.667004,-10.66667 2.667004,-10.66667 4.025863,-13.03797 4.025861,-13.03799 5.07846,-12.96201 5.07846,-12.96202 6.003898,-12.87438 6.003899,-12.87436 8.297994,-14.45897 8.298,-14.45896 8.71667,-12.66667 8.71667,-12.66666 9.64397,-12 9.64396,-12 11.14368,-11.90082 11.14366,-11.90082 12.59838,-11.22211 12.59836,-11.2221 15.40164,-11.59196 15.40162,-11.59196 12.66667,-7.87447 12.66667,-7.87447 17.93568,-9.08803 17.93568,-9.088025 16.93955,-6.601292 16.93956,-6.60129 16.4581,-4.783064 16.45809,-4.783066 16.66667,-3.319298 16.66666,-3.3193 17.33334,-1.939461 17.33333,-1.93946 26.19206,-0.0128 26.19206,-0.01287 13.80794,1.367194 13.80794,1.367193 16,2.663521 16,2.663522 20,5.414594 19.99999,5.414596 16,6.0131 16,6.0131 19.04035,9.347186 19.04033,9.34719 16.293,10.2094 16.29299,10.2094 11.33333,8.55502 11.33333,8.55501 12.66667,11.00143 12.66667,11.00141 10.13948,10.42857 10.13946,10.42856 8.55222,10 8.5522,10 10.5816,14.54791 10.5816,14.5479 8.5212,14.11876 8.52118,14.11876 7.93707,16.36946 7.93705,16.36946 5.93035,15.34405 5.93034,15.34406 4.73319,16.28648 4.7332,16.28649 3.31929,16.66667 3.31931,16.66666 1.93945,17.33334 1.93947,17.33333 0.0133,27.3415 0.0133,27.34151 -2.01954,17.32516 -2.01953,17.32516 -2.72748,14.4908 -2.72747,14.4908 -5.40549,18.84253 -5.40549,18.84253 -5.67445,14.66667 -5.67447,14.66667 -5.9628,12.74486 -5.9628,12.74486 -8.38545,14.58848 -8.38546,14.58846 -7.75852,11.33334 -7.75852,11.33333 -11.23349,14.12641 -11.23349,14.12641 -13.13758,13.6875 -13.13758,13.68748 -12.02852,10.31485 -12.02854,10.31485 -14.61379,10.82127 -14.61382,10.82125 -14.71952,8.80348 -14.71953,8.80348 -16.21709,7.90452 -16.2171,7.90451 -13.41158,5.22665 -13.4116,5.22667 -13.03799,4.02585 -13.03797,4.02587 -10.66667,2.65558 -10.66666,2.65559 -11.33334,2.07747 -11.33333,2.07746 -17.32516,2.02308 -17.32616,2.0231 -29.34151,-0.1446 -29.3415,-0.1446 z m 222.37497,-53.02093 19.07264,-9.73894 17.23259,-11.51378 17.2326,-11.51379 11.33333,-9.00499 11.33333,-9.005 20.07563,-20.07562 20.07562,-20.07563 9.04016,-11.33333 9.04016,-11.33333 11.1554,-16.77136 11.1554,-16.77136 8.15859,-15.53326 8.15859,-15.53324 -0.8418,-1.36206 -0.84179,-1.36206 h -1.81044 -1.81043 l -8.00756,15 -8.00756,15 -7.20332,11.43887 -7.20332,11.43887 -8.46033,11.2278 -8.46032,11.2278 -7.40677,8.66666 -7.40678,8.66667 -9.36622,9.79942 -9.36624,9.79942 -12.66667,11.00134 -12.66666,11.00136 -13.53332,10.02919 -13.53332,10.02919 -11.80002,7.1632 -11.80001,7.1632 -17.33333,8.836 -17.33334,8.83601 -0.43109,2.17083 -0.43111,2.17084 h 2.79255 2.79253 z m 10.66999,-24.14778 12.20117,-7.22002 12.18276,-8.44664 12.18276,-8.44664 13.37363,-11.05143 13.37363,-11.05144 15.98635,-16.53853 15.98635,-16.53853 12.45726,-16.62388 12.45726,-16.62388 7.68545,-12.38642 7.68545,-12.38641 -2.14904,-2.0664 -2.14905,-2.06641 -1.5364,2.47837 -1.53641,2.47837 -10.09327,15.52163 -10.09325,15.52163 -11.17124,14 -11.17124,14 -15.40218,15.45027 -15.40216,15.45028 -13.99999,11.12068 -14,11.12068 -14.66667,9.53988 -14.66667,9.53988 -7,3.76774 -7,3.76773 v 1.56587 1.56588 l 0.8889,0.88888 0.88888,0.88889 h 1.24328 1.24326 z m -27.29375,-3.41866 15.63661,-7.97203 13.61875,-8.6348 13.61875,-8.63481 13.64374,-10.35916 13.64374,-10.35918 20.03399,-20.034 20.034,-20.03399 10.35918,-13.64374 10.35916,-13.64374 8.62138,-13.59758 8.62139,-13.59758 6.31877,-12.45527 6.31879,-12.45528 -1.93633,-1.21543 -1.93635,-1.21542 -1.09685,0.67789 -1.09687,0.67789 -4.72064,9.37395 -4.72064,9.37395 -8.28756,13.5364 -8.28756,13.53638 -7.57925,10.24868 -7.57926,10.24868 -12.27038,14.21292 -12.27039,14.21293 -13.75154,12.41718 -13.75156,12.41718 -12.4771,9.37799 -12.47709,9.378 -11.21365,6.99161 -11.21364,6.99162 -17.33334,8.92529 -17.33333,8.92529 -0.43109,2.1501 -0.43111,2.1501 h 2.86533 2.86532 z m 8.75069,-22.9195 9.4109,-5.5582 11.38021,-7.61692 11.38023,-7.61693 10.61977,-8.42659 10.61979,-8.42657 13.16524,-12.73164 13.16523,-12.73162 10.59798,-12.66667 10.59798,-12.66667 9.02912,-13.33333 9.02912,-13.33333 3.56187,-6.15276 3.56185,-6.15275 -1.90534,-1.58131 -1.90535,-1.58129 -1.44985,1.73405 -1.44984,1.73406 -11.91978,18 -11.91978,18 -13.54551,15.72778 -13.54552,15.72778 -12.86705,11.49746 -12.86704,11.49747 -13.84287,10.31401 -13.84288,10.31403 -13.82378,8.23461 -13.8238,8.23461 v 1.67056 1.67058 l 0.88889,0.88888 0.88888,0.88889 h 0.70023 0.70022 z m -22.15488,-6.3805 15.56578,-7.9387 15.00981,-9.96312 15.0098,-9.96312 13.65687,-11.25501 13.65685,-11.255 11.37169,-11.84318 11.37169,-11.84318 10.16463,-12.66666 10.16463,-12.66667 8.76142,-13.82889 8.76142,-13.8289 5.69156,-11.11514 5.69154,-11.11515 -1.53978,-1.53979 -1.53979,-1.53978 -1.47935,0.91429 -1.47934,0.91428 -4.15342,8.23621 -4.15341,8.2362 -7.04012,11.5635 -7.04012,11.5635 -7.88121,10.73739 -7.8812,10.73739 -11.22876,12.85896 -11.22875,12.85894 -12,10.70466 -12,10.70465 -12,8.8982 -12,8.8982 -12.15372,7.46834 -12.15372,7.46836 -13.51294,6.78111 -13.51295,6.78111 v 1.09896 1.09896 l 0.88889,0.88888 0.88888,0.88889 h 1.87868 1.87867 z m 24.89911,-33.4895 13.33333,-8.94161 12.66667,-10.63722 12.66667,-10.63723 10.16892,-10.65784 10.16893,-10.65784 8.32261,-10.47315 8.32263,-10.47314 7.64304,-11.38023 7.64302,-11.38021 2.16364,-4.19922 2.16364,-4.19921 -1.84937,-1.53484 -1.84936,-1.53484 -1.50837,1.73405 -1.50838,1.73406 -8.08668,12.66666 -8.08666,12.66667 -10.15268,12.66667 -10.15267,12.66666 -11.96962,11.88167 -11.96963,11.88165 -13.60088,10.78502 -13.60088,10.78499 -14.1994,8.66667 -14.19939,8.66667 -2.21424,1.52238 -2.21424,1.52238 1.78211,2.1473 1.78209,2.1473 7.50091,-4.24631 7.50091,-4.24629 z m -38.12099,3.99671 15.45432,-8.09815 12.78228,-8.56969 12.78228,-8.56969 12.6636,-10.57011 12.6636,-10.57012 9.77331,-10.4287 9.77331,-10.42872 7.84706,-9.83739 7.84707,-9.8374 5.29788,-7.80145 5.29786,-7.80146 7.9692,-14.33048 7.96922,-14.33046 v -2.36402 -2.36401 h -2.57682 -2.57681 l -0.77236,2.43349 -0.77236,2.4335 -8.36629,14.66212 -8.36628,14.66212 -11.45315,15.23772 -11.45314,15.23772 -11.16472,11.40492 -11.16474,11.40492 -12.09124,10.01813 -12.09124,10.01812 -11.78516,7.76113 -11.78514,7.76113 -16.45695,8.5899 -16.45693,8.58989 v 1.00371 1.0037 l 0.88889,0.88888 0.88888,0.8889 h 1.99012 1.99012 z m 9.30963,-23.56852 12.3288,-7.66666 10.22009,-7.6447 10.2201,-7.64469 11.5527,-10.65416 11.5527,-10.65416 10.38057,-12.36781 10.38056,-12.36782 9.88941,-15.03426 9.88942,-15.03426 -1.61924,-1.95106 -1.61923,-1.95106 -1.12747,0.69682 -1.12746,0.69681 -7.55778,11.62184 -7.55776,11.62184 -8.31856,10.66667 -8.31856,10.66666 -13.17846,13.15211 -13.17847,13.15211 -13.735,10.3348 -13.73499,10.33481 -11.23646,6.51308 -11.23647,6.51309 -0.0285,2.33334 -0.0285,2.33333 h 2.42992 2.42992 z m -27.57543,-3.14072 10.88736,-5.47405 10.49966,-6.51209 10.49964,-6.5121 8.25006,-6.25709 8.25007,-6.25709 11.06481,-9.94092 11.06482,-9.94092 10.73077,-12.81584 10.73077,-12.81584 8.36586,-12.66667 8.36584,-12.66667 4.7604,-9.47816 4.7604,-9.47817 -1.52183,-1.52182 -1.52184,-1.52184 h -0.9576 -0.95761 l -6.1184,11.50141 -6.1184,11.5014 -6.24518,9.39408 -6.24517,9.39406 -6.46956,8.10452 -6.46957,8.10452 -11.60926,11.77534 -11.60925,11.77533 -8.66667,7.07937 -8.66666,7.07938 -11.22791,7.49456 -11.22791,7.49457 -13.76605,6.98405 -13.76606,6.98407 -0.007,2.33333 -0.007,2.33334 h 2.0296 2.02959 l 10.88736,-5.47406 z m 11.18334,-24.63197 11.87012,-7.43937 7.28321,-5.48432 7.28323,-5.48434 10.21237,-8.99901 10.21239,-8.99903 10.41649,-12.41061 10.41649,-12.41063 8.54895,-13.04284 8.54895,-13.04284 -1.61212,-1.94248 -1.61211,-1.94248 -1.01919,0.6299 -1.01918,0.62989 -10.40671,15.68876 -10.40671,15.68876 -18.75636,18.76991 -18.75637,18.76989 -16.66667,10.8464 -16.66666,10.84641 -2.5589,1.81272 -2.55889,1.81271 0.97092,1.57099 0.97091,1.57097 h 1.71785 1.71785 z m -22.27068,-5.88675 12.96456,-6.65944 10.16529,-7.00722 10.16529,-7.00723 11.33716,-9.75233 11.33718,-9.75232 9.75232,-11.33718 9.75233,-11.33716 6.91156,-10.02609 6.91155,-10.02608 5.4944,-10.56092 5.49438,-10.56092 -0.81797,-1.32349 -0.81796,-1.32351 h -1.90212 -1.90212 l -4.04824,8.01951 -4.04823,8.01952 -4.84301,7.64714 -4.843,7.64716 -8.27815,10.66667 -8.27814,10.66667 -13.26466,12.66666 -13.26464,12.66667 -10.58516,7.54289 -10.58516,7.5429 -14.66666,7.67844 -14.66667,7.67844 -0.49805,0.38782 -0.49805,0.38783 0.78954,2.05751 0.78954,2.0575 h 1.48916 1.48916 z m -1.47275,-17.26812 4.94688,-2.59422 9.61535,-6.47506 9.61534,-6.47504 10.54623,-9.00432 10.54623,-9.00432 7.2788,-8.25973 7.2788,-8.25975 5.98205,-8 5.98204,-8 4.27733,-7.07379 4.27732,-7.07379 -0.77844,-1.25955 -0.77842,-1.25953 h -1.78382 -1.7838 l -9.04348,13.66666 -9.04349,13.66667 -16.09403,16.09136 -16.09401,16.09135 -14.10579,9.24198 -14.10578,9.24198 -2.46544,1.41845 -2.46545,1.41845 0.86272,2.24822 0.86272,2.24821 h 0.76162 0.76164 z m -11.85213,-12.11033 12.53431,-6.65337 10.68005,-7.65436 10.68004,-7.65438 12.11897,-12.10009 12.11897,-12.10009 8.17774,-11.51839 8.17773,-11.5184 5.14416,-9.99294 5.14417,-9.99295 -1.53905,-1.53905 -1.53907,-1.53907 -1.33944,0.82783 -1.33944,0.82781 -5.56624,10.32268 -5.56625,10.32267 -5.89399,8.26252 -5.894,8.26253 -10.98316,11.63493 -10.98316,11.63493 -12.71817,9.48867 -12.71817,9.48867 -12.22323,6.31304 -12.22322,6.31305 -0.80396,1.30083 -0.80395,1.30082 0.82404,1.33334 0.82404,1.33333 1.58799,-0.0256 1.58797,-0.0256 12.53432,-6.65339 z m 8.84443,-24.00468 9.37874,-6.31679 8.661,-7.48604 8.66101,-7.48604 8.09307,-9.66761 8.09308,-9.66761 6.33552,-9.57552 6.33553,-9.57553 -0.88037,-1.42447 -0.88037,-1.42448 h -1.68087 -1.68085 l -7.85846,11.66667 -7.85845,11.66666 -13.382,13.40657 -13.382,13.40656 -12.66666,8.27835 -12.66667,8.27835 -1.73405,1.4306 -1.73406,1.43061 1.53484,1.84936 1.53484,1.84937 4.19922,-2.16112 4.19921,-2.1611 z m -263.25588,-237.25998 6.12285,-11.09288 7.71931,-10.44804 7.71931,-10.44804 11.49117,-11.03379 11.49116,-11.0338 9.28296,-6.91656 9.28295,-6.91655 13.01402,-6.80574 13.01404,-6.80572 0.85351,-1.381 0.85351,-1.381 -1.54002,-1.54001 -1.54001,-1.54001 -12.54685,6.39892 -12.54686,6.39893 -11.6302,8.25725 -11.6302,8.25727 -12.10009,12.11897 -12.10009,12.11897 -7.5499,10.5477 -7.54989,10.54769 -5.58161,10.3624 -5.5816,10.3624 0.79887,2.08181 0.79886,2.08182 1.66598,-0.54906 1.66596,-0.54905 z m 21.93545,-5.03077 7.87258,-11.66667 13.36788,-13.44669 13.36789,-13.4467 12.66667,-8.23821 12.66666,-8.23823 1.73406,-1.4306 1.73405,-1.43061 -1.53484,-1.84936 -1.53484,-1.84937 -4.19921,2.1576 -4.19922,2.15758 -8,5.3645 -8,5.36449 -9.72934,8.10947 -9.72935,8.10946 -8.3152,10 -8.31519,10 -3.36722,4.66667 -3.36723,4.66667 -3.01528,4.97568 -3.01529,4.97569 0.83908,1.35764 0.83906,1.35765 h 1.68087 1.68085 z m -53.35274,-4.41011 3.41716,-6.74345 5.45648,-8.92322 5.45648,-8.92322 6.07085,-8 6.07087,-8 11.41129,-11.81324 11.41129,-11.81323 10.8691,-8.52854 10.86909,-8.52856 11.86209,-6.99155 11.86208,-6.99155 6.9355,-3.22792 6.93548,-3.2279 v -1.81394 -1.81393 l -1.90628,-0.73151 -1.90628,-0.7315 -13.17227,6.76613 -13.17227,6.76612 -10.16529,7.00723 -10.16529,7.00722 -11.33716,9.75234 -11.33718,9.75232 -9.75231,11.33717 -9.75234,11.33716 -6.91156,10.02609 -6.91154,10.02608 -5.4944,10.56092 -5.49439,10.56092 0.81797,1.32349 0.81796,1.32351 h 1.89886 1.89885 z m 26.65228,-13.39151 8.9662,-13.46828 12.78388,-13.31898 12.78388,-13.31899 11.19764,-8.40396 11.19764,-8.40397 8.52312,-4.98451 8.52312,-4.9845 v -1.74558 -1.74557 l -1.29418,-0.79984 -1.29417,-0.79984 -4.37249,2.23723 -4.3725,2.23721 -11.33333,7.7362 -11.33333,7.73619 -10.37122,8.95742 -10.3712,8.95744 -8.05065,9.45697 -8.05065,9.45698 -8.73489,12.87368 -8.73491,12.87368 0.90212,1.45965 0.90211,1.45965 h 1.78381 1.7838 z m -53.90167,-3.94534 5.59118,-10.74695 7.28828,-10.91972 7.28828,-10.91971 7.10168,-8.70953 7.10166,-8.70953 13.75304,-13.37347 13.75303,-13.37348 10,-7.33248 10,-7.33248 10,-6.137 10,-6.13698 10.33333,-5.07324 10.33333,-5.07323 v -2.37429 -2.37428 h -2.03328 -2.03329 l -9.63337,4.82773 -9.63339,4.82773 -8.92517,5.18738 -8.92518,5.18738 -13.63821,10.1499 -13.6382,10.14989 -12.79933,12.835 -12.79933,12.83499 -8.86172,11.38548 -8.86172,11.38546 -6.60898,10.65585 -6.60896,10.65586 -4.0899,8.10204 -4.0899,8.10204 1.52331,1.5233 1.52329,1.5233 h 0.99918 0.99916 z m 27.29104,-14.23095 10.40671,-15.68876 18.75636,-18.7699 18.75637,-18.7699 16.66667,-10.8464 16.66666,-10.84641 2.66667,-1.93499 2.66667,-1.93498 -1.6305,-1.67922 -1.6305,-1.6792 -3.70283,1.68506 -3.70284,1.68505 -12.66667,8.30003 -12.66666,8.30001 -12.19455,10.2352 -12.19454,10.2352 -10.955,12.34356 -10.95499,12.34356 -10.00545,15.00996 -10.00546,15.00996 1.6394,1.97536 1.6394,1.97536 1.01919,-0.6299 1.01919,-0.62989 z m -58.22982,3.97791 3.04876,-6.33334 6.74553,-11.33333 6.74553,-11.33333 11.31568,-15.13328 11.31567,-15.13328 13.96511,-13.89757 13.96512,-13.89759 15.52393,-11.67209 15.52393,-11.6721 10.66667,-6.12718 10.66666,-6.12719 11.09092,-5.56379 11.09091,-5.56378 -0.53473,-1.60607 -0.53474,-1.60608 -2.1014,-0.40771 -2.1014,-0.4077 -12.35782,6.20646 -12.35784,6.20648 -10.64392,6.60158 -10.64393,6.60157 -12.78635,9.54519 -12.78636,9.5452 -16.01376,16.05446 -16.01376,16.05447 -9.58591,12.78636 -9.58589,12.78635 -6.56708,10.5883 -6.56707,10.58831 -4.1666,8.25398 -4.1666,8.25399 v 2.03801 2.03803 h 2.40098 2.40098 z m 27.72242,-16.12279 7.43047,-11.54388 8.31837,-10.67704 8.31839,-10.67705 13.1798,-13.16143 13.17981,-13.16142 13.735,-10.31511 13.73499,-10.31511 11.23646,-6.51308 11.23647,-6.51309 0.0285,-2.33333 0.0285,-2.33334 h -2.42992 -2.42992 l -12.3288,7.66667 -12.3288,7.66667 -10.22009,7.64469 -10.22009,7.64469 -11.55271,10.65416 -11.55269,10.65416 -10.11539,12.05623 -10.11539,12.05624 -7.82101,11.6449 -7.82101,11.64492 -2.13043,4.13499 -2.13043,4.135 1.47846,1.47845 1.47844,1.47844 1.19125,-0.73622 1.19124,-0.73623 z m -53.06649,-4.97727 7.17335,-13.23327 8.42945,-12.66667 8.42944,-12.66667 9.06388,-11.32712 9.06388,-11.32712 13.33955,-13.33954 13.33954,-13.33955 11.32712,-9.06388 11.32712,-9.06388 13.31574,-8.88516 13.31573,-8.88517 17.35093,-8.90486 17.35093,-8.90483 v -1.79452 -1.79451 l -2.34682,-0.45196 -2.34683,-0.45196 -16.98651,8.84828 -16.9865,8.84826 -14.66667,9.88072 -14.66666,9.88071 -13.33334,11.1958 -13.33333,11.1958 -10.69271,11.17557 -10.69269,11.17559 -9.06824,11.25004 -9.06824,11.25003 -8.44771,12.74997 -8.4477,12.74996 -6.92406,13.02593 -6.92405,13.02593 0.80007,2.08495 0.80006,2.08495 1.66598,-0.54427 1.66596,-0.54427 z m 24.12663,-9.34605 5.96662,-10.00537 7.49436,-10.00775 7.49435,-10.00774 10.45957,-12.00591 10.45956,-12.00591 13.19567,-11.59393 13.19567,-11.59395 10.88378,-7.80046 10.88379,-7.80047 12.33333,-7.36381 12.33333,-7.3638 v -1.0058 -1.0058 l -1.75494,-1.45648 -1.75496,-1.45648 -13.70418,8.29321 -13.70418,8.29323 -13.54087,10.16945 -13.54086,10.16945 -12.40647,11.69135 -12.40648,11.69135 -10.69008,12.80586 -10.69008,12.80587 -9.05187,13.33333 -9.05186,13.33334 -2.11659,4.13498 -2.11659,4.135 1.42748,1.42748 1.42748,1.42748 1.5042,-0.61617 1.50419,-0.61618 z m -55.13713,-0.87724 4.7631,-9.45826 8.70843,-14.10919 8.70841,-14.1092 9.27361,-12.35741 9.27362,-12.3574 12.3395,-13.6426 12.33951,-13.64259 9.88216,-8.70593 9.88216,-8.70594 6.66667,-5.43036 6.66666,-5.43036 9.33334,-6.57636 9.33333,-6.57635 9.33333,-5.91934 9.33334,-5.91933 17.33333,-8.86385 17.33333,-8.86384 0.43109,-2.17083 0.43111,-2.17084 h -2.78888 -2.78888 l -17.64222,9.03368 -17.64222,9.03368 -15.33333,10.17547 -15.33333,10.17547 -14,11.2738 -14,11.27379 -16,16.57649 -16,16.57648 -10.39318,13.58431 -10.39316,13.58431 -8.62138,13.59757 -8.62139,13.59759 -6.31877,12.45526 -6.31879,12.45528 1.93634,1.21543 1.93634,1.21542 1.09686,-0.67789 1.09686,-0.67789 z m -29.33323,-13.34332 4.86312,-9.66666 8.00044,-13.33334 8.00044,-13.33333 10.13823,-14 10.13824,-14 11.66683,-13.52745 11.66686,-13.52747 12.10441,-11.39459 12.10441,-11.39458 8.91038,-7.25097 8.91037,-7.25099 12,-8.55297 12,-8.55298 9.33333,-5.88838 9.33334,-5.88839 18.66666,-9.50161 18.66667,-9.50162 0.43109,-2.21733 0.43111,-2.21733 h -2.67375 -2.67373 l -17.09069,8.61511 -17.0907,8.61512 -14.65126,9.23885 -14.65128,9.23885 -15.34872,11.78231 -15.34874,11.78229 -20.7552,20.69706 -20.75521,20.69707 -8.99208,11.33333 -8.99208,11.33334 -11.13616,16.66666 -11.13616,16.66667 -8.213,15.63795 -8.212988,15.63793 0.841799,1.36207 0.841799,1.36205 h 1.90455 1.90455 z m 56.82048,-2.27972 6.31674,-10.48544 9.80562,-13.11741 9.80561,-13.11743 11.64948,-13.0033 11.64948,-13.0033 14.34836,-12.33004 14.34835,-12.33002 11.87981,-8.46854 11.8798,-8.46853 12.33333,-7.27591 12.33333,-7.27591 v -1.84354 -1.84353 l -1.3168,-0.81383 -1.3168,-0.81382 -9.68319,5.61052 -9.6832,5.61051 -13.33334,9.02807 -13.33333,9.02807 -12.69737,10.59952 -12.69736,10.59952 -14.2826,14.90504 -14.2826,14.90504 -10.35336,13.81489 -10.35338,13.81489 -7.65242,12.32431 -7.65243,12.32431 1.41657,1.70688 1.41659,1.70686 1.56917,-0.65122 1.56919,-0.65123 z m -25.01113,-20.61362 10.14908,-15.89335 10.93931,-14.02616 10.93932,-14.02616 16.66667,-16.88604 16.66667,-16.88603 14,-11.09876 14,-11.09874 14.66666,-9.5404 14.66667,-9.54039 6.99864,-3.88865 6.99865,-3.88864 0.001,-1.70851 10e-4,-1.70852 -1.91337,-0.73422 -1.91336,-0.73423 -9.75331,5.66563 -9.75329,5.66561 -12,7.97193 -12,7.97194 -12.66667,10.08052 -12.66667,10.08051 -14.49368,14.058 -14.49366,14.058 -10.62703,12.66667 -10.62701,12.66667 -7.29052,10.31353 -7.29053,10.31355 -7.25304,11.55274 -7.25304,11.55275 1.53104,1.84479 1.53104,1.84478 1.04482,-0.37774 1.04483,-0.37774 10.14907,-15.89334 z"
       id="path26"
       inkscape:connector-curvature="0" />
    <path
       style="fill:#000000;stroke-width:1.33333325"
       d="m 402.57682,861.88376 -14.57948,-1.76211 -12.08718,-2.18841 -12.0872,-2.18842 -12.68364,-3.18125 -12.68363,-3.18127 -15.98304,-5.29602 -15.98303,-5.29604 -12,-5.01587 -11.99999,-5.01588 -16,-8.17236 -16,-8.17236 -12.41252,-7.70241 -12.41251,-7.70241 -13.58749,-10.0695 -13.58748,-10.06949 -12.66667,-11.00705 -12.66667,-11.00704 -10.70829,-11.12706 -10.70828,-11.12706 -7.43404,-8.66667 -7.43404,-8.66667 -9.44609,-12.80607 -9.44611,-12.80608 -8.2676,-13.12308 -8.2676,-13.1231 -8.925179,-17.41756 -8.925178,-17.41757 -6.740606,-17.31993 -6.740608,-17.31994 -5.395182,-18.83325 -5.395183,-18.83325 -2.140593,-11.16675 -2.140595,-11.16674 -2.040953,-13.33334 -2.040955,-13.33333 -0.739866,-32.14233 -0.739867,-32.14235 1.571004,-15.85765 1.571004,-15.85767 2.689877,-15.33333 2.689877,-15.33333 2.667004,-10.66667 2.667004,-10.66667 4.025863,-13.03797 4.025861,-13.03799 5.07846,-12.96201 5.07846,-12.96202 6.003898,-12.87438 6.003899,-12.87436 8.297994,-14.45897 8.298,-14.45896 8.71667,-12.66667 8.71667,-12.66666 9.64397,-12 9.64396,-12 11.14368,-11.90082 11.14366,-11.90082 12.59838,-11.22211 12.59836,-11.2221 15.40164,-11.59196 15.40162,-11.59196 12.66667,-7.87447 12.66667,-7.87447 17.93568,-9.08803 17.93568,-9.088025 16.93955,-6.601292 16.93956,-6.60129 16.4581,-4.783064 16.45809,-4.783066 16.66667,-3.319298 16.66666,-3.3193 17.33334,-1.939461 17.33333,-1.93946 26.19206,-0.0128 26.19206,-0.01287 13.80794,1.367194 13.80794,1.367193 16,2.663521 16,2.663522 20,5.414594 19.99999,5.414596 16,6.0131 16,6.0131 19.04035,9.347186 19.04033,9.34719 16.293,10.2094 16.29299,10.2094 11.33333,8.55502 11.33333,8.55501 12.66667,11.00143 12.66667,11.00141 10.13948,10.42857 10.13946,10.42856 8.55222,10 8.5522,10 10.5816,14.54791 10.5816,14.5479 8.5212,14.11876 8.52118,14.11876 7.93707,16.36946 7.93705,16.36946 5.93035,15.34405 5.93034,15.34406 4.73319,16.28648 4.7332,16.28649 3.31929,16.66667 3.31931,16.66666 1.93945,17.33334 1.93947,17.33333 0.0133,27.3415 0.0133,27.34151 -2.01954,17.32516 -2.01953,17.32516 -2.72748,14.4908 -2.72747,14.4908 -5.40549,18.84253 -5.40549,18.84253 -5.67445,14.66667 -5.67447,14.66667 -5.9628,12.74486 -5.9628,12.74486 -8.38545,14.58848 -8.38546,14.58846 -7.75852,11.33334 -7.75852,11.33333 -11.23349,14.12641 -11.23349,14.12641 -13.13758,13.6875 -13.13758,13.68748 -12.02852,10.31485 -12.02854,10.31485 -14.61379,10.82127 -14.61382,10.82125 -14.71952,8.80348 -14.71953,8.80348 -16.21709,7.90452 -16.2171,7.90451 -13.41158,5.22665 -13.4116,5.22667 -13.03799,4.02585 -13.03797,4.02587 -10.66667,2.65558 -10.66666,2.65559 -11.33334,2.07747 -11.33333,2.07746 -17.32516,2.02308 -17.32616,2.0231 -29.34151,-0.1446 -29.3415,-0.1446 z m 222.37497,-53.02093 19.07264,-9.73894 17.23259,-11.51378 17.2326,-11.51379 11.33333,-9.00499 11.33333,-9.005 20.07563,-20.07562 20.07562,-20.07563 9.04016,-11.33333 9.04016,-11.33333 11.1554,-16.77136 11.1554,-16.77136 8.15859,-15.53326 8.15859,-15.53324 -0.8418,-1.36206 -0.84179,-1.36206 h -1.81044 -1.81043 l -8.00756,15 -8.00756,15 -7.20332,11.43887 -7.20332,11.43887 -8.46033,11.2278 -8.46032,11.2278 -7.40677,8.66666 -7.40678,8.66667 -9.36622,9.79942 -9.36624,9.79942 -12.66667,11.00134 -12.66666,11.00136 -13.53332,10.02919 -13.53332,10.02919 -11.80002,7.1632 -11.80001,7.1632 -17.33333,8.836 -17.33334,8.83601 -0.43109,2.17083 -0.43111,2.17084 h 2.79255 2.79253 z m 10.66999,-24.14778 12.20117,-7.22002 12.18276,-8.44664 12.18276,-8.44664 13.37363,-11.05143 13.37363,-11.05144 15.98635,-16.53853 15.98635,-16.53853 12.45726,-16.62388 12.45726,-16.62388 7.68545,-12.38642 7.68545,-12.38641 -2.14904,-2.0664 -2.14905,-2.06641 -1.5364,2.47837 -1.53641,2.47837 -10.09327,15.52163 -10.09325,15.52163 -11.17124,14 -11.17124,14 -15.40218,15.45027 -15.40216,15.45028 -13.99999,11.12068 -14,11.12068 -14.66667,9.53988 -14.66667,9.53988 -7,3.76774 -7,3.76773 v 1.56587 1.56588 l 0.8889,0.88888 0.88888,0.88889 h 1.24328 1.24326 z m -27.29375,-3.41866 15.63661,-7.97203 13.61875,-8.6348 13.61875,-8.63481 13.64374,-10.35916 13.64374,-10.35918 20.03399,-20.034 20.034,-20.03399 10.35918,-13.64374 10.35916,-13.64374 8.62138,-13.59758 8.62139,-13.59758 6.31877,-12.45527 6.31879,-12.45528 -1.93633,-1.21543 -1.93635,-1.21542 -1.09685,0.67789 -1.09687,0.67789 -4.72064,9.37395 -4.72064,9.37395 -8.28756,13.5364 -8.28756,13.53638 -7.57925,10.24868 -7.57926,10.24868 -12.27038,14.21292 -12.27039,14.21293 -13.75154,12.41718 -13.75156,12.41718 -12.4771,9.37799 -12.47709,9.378 -11.21365,6.99161 -11.21364,6.99162 -17.33334,8.92529 -17.33333,8.92529 -0.43109,2.1501 -0.43111,2.1501 h 2.86533 2.86532 z m 8.75069,-22.9195 9.4109,-5.5582 11.38021,-7.61692 11.38023,-7.61693 10.61977,-8.42659 10.61979,-8.42657 13.16524,-12.73164 13.16523,-12.73162 10.59798,-12.66667 10.59798,-12.66667 9.02912,-13.33333 9.02912,-13.33333 3.56187,-6.15276 3.56185,-6.15275 -1.90534,-1.58131 -1.90535,-1.58129 -1.44985,1.73405 -1.44984,1.73406 -11.91978,18 -11.91978,18 -13.54551,15.72778 -13.54552,15.72778 -12.86705,11.49746 -12.86704,11.49747 -13.84287,10.31401 -13.84288,10.31403 -13.82378,8.23461 -13.8238,8.23461 v 1.67056 1.67058 l 0.88889,0.88888 0.88888,0.88889 h 0.70023 0.70022 z m -22.15488,-6.3805 15.56578,-7.9387 15.00981,-9.96312 15.0098,-9.96312 13.65687,-11.25501 13.65685,-11.255 11.37169,-11.84318 11.37169,-11.84318 10.16463,-12.66666 10.16463,-12.66667 8.76142,-13.82889 8.76142,-13.8289 5.69156,-11.11514 5.69154,-11.11515 -1.53978,-1.53979 -1.53979,-1.53978 -1.47935,0.91429 -1.47934,0.91428 -4.15342,8.23621 -4.15341,8.2362 -7.04012,11.5635 -7.04012,11.5635 -7.88121,10.73739 -7.8812,10.73739 -11.22876,12.85896 -11.22875,12.85894 -12,10.70466 -12,10.70465 -12,8.8982 -12,8.8982 -12.15372,7.46834 -12.15372,7.46836 -13.51294,6.78111 -13.51295,6.78111 v 1.09896 1.09896 l 0.88889,0.88888 0.88888,0.88889 h 1.87868 1.87867 z m 24.89911,-33.4895 13.33333,-8.94161 12.66667,-10.63722 12.66667,-10.63723 10.16892,-10.65784 10.16893,-10.65784 8.32261,-10.47315 8.32263,-10.47314 7.64304,-11.38023 7.64302,-11.38021 2.16364,-4.19922 2.16364,-4.19921 -1.84937,-1.53484 -1.84936,-1.53484 -1.50837,1.73405 -1.50838,1.73406 -8.08668,12.66666 -8.08666,12.66667 -10.15268,12.66667 -10.15267,12.66666 -11.96962,11.88167 -11.96963,11.88165 -13.60088,10.78502 -13.60088,10.78499 -14.1994,8.66667 -14.19939,8.66667 -2.21424,1.52238 -2.21424,1.52238 1.78211,2.1473 1.78209,2.1473 7.50091,-4.24631 7.50091,-4.24629 z m -38.12099,3.99671 15.45432,-8.09815 12.78228,-8.56969 12.78228,-8.56969 12.6636,-10.57011 12.6636,-10.57012 9.77331,-10.4287 9.77331,-10.42872 7.84706,-9.83739 7.84707,-9.8374 5.29788,-7.80145 5.29786,-7.80146 7.9692,-14.33048 7.96922,-14.33046 v -2.36402 -2.36401 h -2.57682 -2.57681 l -0.77236,2.43349 -0.77236,2.4335 -8.36629,14.66212 -8.36628,14.66212 -11.45315,15.23772 -11.45314,15.23772 -11.16472,11.40492 -11.16474,11.40492 -12.09124,10.01813 -12.09124,10.01812 -11.78516,7.76113 -11.78514,7.76113 -16.45695,8.5899 -16.45693,8.58989 v 1.00371 1.0037 l 0.88889,0.88888 0.88888,0.8889 h 1.99012 1.99012 z m 9.30963,-23.56852 12.3288,-7.66666 10.22009,-7.6447 10.2201,-7.64469 11.5527,-10.65416 11.5527,-10.65416 10.38057,-12.36781 10.38056,-12.36782 9.88941,-15.03426 9.88942,-15.03426 -1.61924,-1.95106 -1.61923,-1.95106 -1.12747,0.69682 -1.12746,0.69681 -7.55778,11.62184 -7.55776,11.62184 -8.31856,10.66667 -8.31856,10.66666 -13.17846,13.15211 -13.17847,13.15211 -13.735,10.3348 -13.73499,10.33481 -11.23646,6.51308 -11.23647,6.51309 -0.0285,2.33334 -0.0285,2.33333 h 2.42992 2.42992 z m -27.57543,-3.14072 10.88736,-5.47405 10.49966,-6.51209 10.49964,-6.5121 8.25006,-6.25709 8.25007,-6.25709 11.06481,-9.94092 11.06482,-9.94092 10.73077,-12.81584 10.73077,-12.81584 8.36586,-12.66667 8.36584,-12.66667 4.7604,-9.47816 4.7604,-9.47817 -1.52183,-1.52182 -1.52184,-1.52184 h -0.9576 -0.95761 l -6.1184,11.50141 -6.1184,11.5014 -6.24518,9.39408 -6.24517,9.39406 -6.46956,8.10452 -6.46957,8.10452 -11.60926,11.77534 -11.60925,11.77533 -8.66667,7.07937 -8.66666,7.07938 -11.22791,7.49456 -11.22791,7.49457 -13.76605,6.98405 -13.76606,6.98407 -0.007,2.33333 -0.007,2.33334 h 2.0296 2.02959 l 10.88736,-5.47406 z m 11.18334,-24.63197 11.87012,-7.43937 7.28321,-5.48432 7.28323,-5.48434 10.21237,-8.99901 10.21239,-8.99903 10.41649,-12.41061 10.41649,-12.41063 8.54895,-13.04284 8.54895,-13.04284 -1.61212,-1.94248 -1.61211,-1.94248 -1.01919,0.6299 -1.01918,0.62989 -10.40671,15.68876 -10.40671,15.68876 -18.75636,18.76991 -18.75637,18.76989 -16.66667,10.8464 -16.66666,10.84641 -2.5589,1.81272 -2.55889,1.81271 0.97092,1.57099 0.97091,1.57097 h 1.71785 1.71785 z m -22.27068,-5.88675 12.96456,-6.65944 10.16529,-7.00722 10.16529,-7.00723 11.33716,-9.75233 11.33718,-9.75232 9.75232,-11.33718 9.75233,-11.33716 6.91156,-10.02609 6.91155,-10.02608 5.4944,-10.56092 5.49438,-10.56092 -0.81797,-1.32349 -0.81796,-1.32351 h -1.90212 -1.90212 l -4.04824,8.01951 -4.04823,8.01952 -4.84301,7.64714 -4.843,7.64716 -8.27815,10.66667 -8.27814,10.66667 -13.26466,12.66666 -13.26464,12.66667 -10.58516,7.54289 -10.58516,7.5429 -14.66666,7.67844 -14.66667,7.67844 -0.49805,0.38782 -0.49805,0.38783 0.78954,2.05751 0.78954,2.0575 h 1.48916 1.48916 z m -1.47275,-17.26812 4.94688,-2.59422 9.61535,-6.47506 9.61534,-6.47504 10.54623,-9.00432 10.54623,-9.00432 7.2788,-8.25973 7.2788,-8.25975 5.98205,-8 5.98204,-8 4.27733,-7.07379 4.27732,-7.07379 -0.77844,-1.25955 -0.77842,-1.25953 h -1.78382 -1.7838 l -9.04348,13.66666 -9.04349,13.66667 -16.09403,16.09136 -16.09401,16.09135 -14.10579,9.24198 -14.10578,9.24198 -2.46544,1.41845 -2.46545,1.41845 0.86272,2.24822 0.86272,2.24821 h 0.76162 0.76164 z m -11.85213,-12.11033 12.53431,-6.65337 10.68005,-7.65436 10.68004,-7.65438 12.11897,-12.10009 12.11897,-12.10009 8.17774,-11.51839 8.17773,-11.5184 5.14416,-9.99294 5.14417,-9.99295 -1.53905,-1.53905 -1.53907,-1.53907 -1.33944,0.82783 -1.33944,0.82781 -5.56624,10.32268 -5.56625,10.32267 -5.89399,8.26252 -5.894,8.26253 -10.98316,11.63493 -10.98316,11.63493 -12.71817,9.48867 -12.71817,9.48867 -12.22323,6.31304 -12.22322,6.31305 -0.80396,1.30083 -0.80395,1.30082 0.82404,1.33334 0.82404,1.33333 1.58799,-0.0256 1.58797,-0.0256 12.53432,-6.65339 z m 8.84443,-24.00468 9.37874,-6.31679 8.661,-7.48604 8.66101,-7.48604 8.09307,-9.66761 8.09308,-9.66761 6.33552,-9.57552 6.33553,-9.57553 -0.88037,-1.42447 -0.88037,-1.42448 h -1.68087 -1.68085 l -7.85846,11.66667 -7.85845,11.66666 -13.382,13.40657 -13.382,13.40656 -12.66666,8.27835 -12.66667,8.27835 -1.73405,1.4306 -1.73406,1.43061 1.53484,1.84936 1.53484,1.84937 4.19922,-2.16112 4.19921,-2.1611 z m -77.68614,-6.45004 1.07439,-1.07439 -8.84168,-9.54984 -8.84168,-9.54982 h -22.54181 -22.54183 v -10 -10 H 397.6821 386.87457 l -3.96144,3.33333 -3.96144,3.33334 h -3.29725 -3.29724 l -3.99107,-2.06387 -3.99107,-2.06385 -1.27605,-3.35628 -1.27605,-3.35627 v -3.73339 -3.73338 l 2.72444,-3.46358 2.72444,-3.46356 4.75722,-0.89246 4.75723,-0.89246 4.51833,2.15464 4.51834,2.15464 v 1.35491 1.35491 h 11.33333 11.33333 v -10 -10 h 40.66667 40.66666 v 1.46176 1.46174 l 7.49616,8.53826 7.49616,8.53824 h 4.4828 4.48282 l 4.32406,3.86354 4.32407,3.86356 v 5.60623 5.60623 l -4.32407,3.86356 -4.32406,3.86354 h -4.34896 -4.34896 l -3.10419,-2.17425 -3.10419,-2.17427 -1.90157,-4.55109 -1.90156,-4.55111 0.75067,-1.2146 0.75066,-1.21461 -6.9432,-7.72669 -6.9432,-7.72671 -1.43172,-0.97959 -1.43172,-0.97957 -29.04828,-0.0204 -29.04827,-0.0204 0.38161,13 0.38161,13 19.30185,0.37179 19.30184,0.37178 1.15771,2.0687 1.15771,2.0687 12.05194,13.09307 12.05196,13.09306 7.44668,-2.56204 7.44668,-2.56202 10.00467,-4.9434 10.00465,-4.9434 10.03716,-7.5187 10.03715,-7.51869 4.26669,-4.50942 4.2667,-4.50943 -8.04963,-9 -8.04961,-9 h -2.5504 -2.55042 l -0.009,-31.66667 -0.009,-31.66666 -10.3237,-11.12347 -10.32368,-11.12347 -10.21732,8.79014 -10.21732,8.79013 h -17.24269 -17.24269 l -2.30306,2.54483 -2.30304,2.54484 -3.84536,1.5928 -3.84537,1.5928 -5.05824,-2.47096 -5.05887,-2.47102 -1.79377,-3.78008 -1.79379,-3.78008 0.8142,-4.34001 0.81419,-4.34001 3.24557,-3.04906 3.24556,-3.04905 5.31956,-0.13948 5.31956,-0.13949 3.08114,2.87774 3.08112,2.87774 15.64989,0.32725 15.64989,0.32725 5.01678,-4.63156 5.01677,-4.63157 13.33333,-11.80119 13.33334,-11.80118 0.97958,-1.4636 0.97958,-1.46361 0.0204,-25.71331 0.0204,-25.71332 -13.66667,0.37999 -13.66667,0.37997 -0.38412,13.20737 -0.38412,13.20736 3.68715,3.84856 3.68716,3.84855 v 5.41387 5.41385 l -4.32407,3.86356 -4.32406,3.86355 h -4.6246 -4.6246 l -4.32407,-3.86355 -4.32407,-3.86356 v -5.41385 -5.41387 l 3.63638,-3.79555 3.63636,-3.79554 V 384.2311 364.00638 l 19.66666,-0.36898 19.66667,-0.36898 v -9.95726 -9.95728 l -11.33333,-5.62935 -11.33334,-5.62933 -11.9081,-3.44014 -11.90812,-3.44013 -15.42522,-1.53003 -15.42522,-1.53004 -5,0.95054 -5,0.95053 v 17.79536 17.79537 l 8.00014,8.63534 8.00014,8.63534 5.38548,0.72235 5.38549,0.72235 2.15424,1.78652 2.15425,1.78653 1.81135,4.33333 1.81136,4.33334 -1.81136,4.33333 -1.81135,4.33333 -2.15425,1.78654 -2.15424,1.78652 -5.19649,0.697 -5.19651,0.697 -4.23543,-3.81687 -4.23544,-3.81685 -0.7911,-5.33334 -0.79111,-5.33333 -4.09081,-4.33333 -4.0908,-4.33334 h -3.85192 -3.85194 l -9.52093,8.33334 -9.52093,8.33333 -1.80607,1.67857 -1.80605,1.67858 0.44047,1.18945 0.44048,1.18947 8.98164,9.5457 8.98162,9.54571 0.35171,42.91958 0.35169,42.9196 33.78004,0.35647 33.78003,0.35647 3.98893,-3.35647 3.98893,-3.35647 h 5.2947 5.2947 l 3.30184,3.56275 3.30186,3.56276 0.81434,3.2446 0.81434,3.24461 -2.19343,4.59968 -2.19344,4.59968 -4.76743,1.99196 -4.76742,1.99196 -4.44567,-1.4672 -4.44568,-1.4672 -1.60324,-1.9318 -1.60321,-1.9318 H 449.6597 408.48962 v -47.11944 -47.11945 l -12.22334,-13.21388 -12.22334,-13.21389 -13.69192,-14.74764 -13.69192,-14.74763 -2.65753,-3.25237 -2.65755,-3.25236 -5.44297,5.286 -5.44299,5.286 0.34912,0.90453 0.34911,0.90452 22,23.80947 22,23.80948 5.01708,5.17395 5.01708,5.17393 -0.35041,46.1594 -0.35042,46.15938 -29.66666,0.35884 -29.66667,0.35884 v -16.54952 -16.54952 l -2.10905,-0.80932 -2.10904,-0.80932 h -11.2243 -11.22428 v 1.18418 1.18418 l 3.41175,11.77322 3.41175,11.77321 5.45798,11.17177 5.45798,11.17176 5.94897,8.20418 5.94896,8.20417 8.18131,8.45029 8.1813,8.45028 7.47003,5.80967 7.47004,5.80966 8.13561,4.76816 8.13562,4.76815 11.7342,4.53176 11.73418,4.53175 10.66016,2.07733 10.66016,2.07733 4.66667,0.57256 4.66666,0.57255 14.64244,-0.58552 14.64244,-0.58552 z m 100.84287,-68.17405 5.16752,-8.66667 3.43554,-8.18318 3.43556,-8.1832 2.67135,-9.6399 2.67135,-9.63988 1.56045,-13.86764 1.56045,-13.86762 -1.53772,-13.52295 -1.5377,-13.52296 -2.10248,-8.11966 -2.10247,-8.11967 -3.52263,-9.05859 -3.52262,-9.05858 -3.35604,0.39192 -3.35604,0.39192 -0.3686,20.43228 -0.36859,20.43229 3.36859,4.00334 3.3686,4.00335 v 3.94461 3.94462 l -2.27254,3.46833 -2.27254,3.46832 -4.39412,1.83599 -4.39414,1.83598 -4.49241,-1.87705 -4.4924,-1.87704 -2.17426,-3.10419 -2.17426,-3.10418 v -4.2677 -4.26769 l 3.33334,-3.96144 3.33333,-3.96144 v -27.4742 -27.47418 h 6.74952 6.7495 l -4.41617,-6.29162 -4.41619,-6.29161 -11.19009,-11.70839 -11.19009,-11.70838 h -1.14324 -1.14324 v 44.66666 44.66667 h -4.91407 -4.91406 l -3.08594,2.89908 -3.08593,2.89909 v 1.21995 1.21994 l 11.28281,12.09143 11.28282,12.09144 0.38385,10.78953 0.38385,10.78954 3.13048,0.44317 3.1305,0.44316 2.8695,-2.68768 2.86952,-2.68769 3.33333,-1.21644 3.33334,-1.21643 4.25528,1.14552 4.25529,1.14552 2.74471,3.85459 2.74472,3.8546 v 4.10646 4.10648 l -3.66667,4.06734 -3.66667,4.06734 -4.74042,0.7527 -4.74043,0.75269 -4.11872,-3.46567 -4.1187,-3.46566 h -4.14087 -4.14085 v 11.50272 11.50273 l 8.33333,9.01953 8.33333,9.01954 3.01732,-3.52226 3.01731,-3.52226 z m -189.55292,-62.66667 0.31588,-36.66666 -10.51008,-11.33333 -10.51009,-11.33334 -0.61537,0.66667 -0.61538,0.66667 -9.52376,13.17446 -9.52376,13.17445 v 3.77159 3.77157 l -3.65304,3.3873 -3.65304,3.38729 h -5.56177 -5.56176 l -3.45187,-4.10231 -3.45185,-4.10229 v -4.65203 -4.65201 l 1.37285,-2.56521 1.37287,-2.56521 3.89425,-2.0138 3.89427,-2.0138 h 3.84167 3.84165 l 4.21095,-6.33334 4.21094,-6.33333 4.73135,-6.22981 4.73135,-6.22983 -9.61711,-10.89599 -9.61711,-10.896 -2.42533,3.12582 -2.42533,3.12581 -5.92338,12 -5.92337,12 -3.27761,11.33333 -3.2776,11.33334 -1.47056,11.99999 -1.47058,12 0.0167,6.66667 0.0167,6.66667 1.03525,1.62942 1.03527,1.62944 19.94432,0.37056 19.94432,0.37058 0.37346,17.04072 0.37348,17.0407 16.29319,-0.37404 16.2932,-0.37405 z m -96.85969,-99.96922 6.12285,-11.09288 7.71931,-10.44804 7.71931,-10.44804 11.49117,-11.03379 11.49116,-11.0338 9.28296,-6.91656 9.28295,-6.91655 13.01402,-6.80574 13.01404,-6.80572 0.85351,-1.381 0.85351,-1.381 -1.54002,-1.54001 -1.54001,-1.54001 -12.54685,6.39892 -12.54686,6.39893 -11.6302,8.25725 -11.6302,8.25727 -12.10009,12.11897 -12.10009,12.11897 -7.5499,10.5477 -7.54989,10.54769 -5.58161,10.3624 -5.5816,10.3624 0.79887,2.08181 0.79886,2.08182 1.66598,-0.54906 1.66596,-0.54905 z m 123.89271,-0.0308 13.18202,-11.33334 0.0679,-19 0.0679,-19 h -0.51751 -0.51752 l -11.54832,3.34658 -11.54832,3.34657 -9.72345,4.61417 -9.72344,4.61418 -8.27152,5.5235 -8.27152,5.52352 0.39413,1.17155 0.39413,1.17155 14.66667,16.0379 14.66667,16.03791 1.7501,-0.36039 1.7501,-0.36037 z m -101.95726,-5 7.87258,-11.66667 13.36788,-13.44669 13.36789,-13.4467 12.66667,-8.23821 12.66666,-8.23823 1.73406,-1.4306 1.73405,-1.43061 -1.53484,-1.84936 -1.53484,-1.84937 -4.19921,2.1576 -4.19922,2.15758 -8,5.3645 -8,5.36449 -9.72934,8.10947 -9.72935,8.10946 -8.3152,10 -8.31519,10 -3.36722,4.66667 -3.36723,4.66667 -3.01528,4.97568 -3.01529,4.97569 0.83908,1.35764 0.83906,1.35765 h 1.68087 1.68085 z m -53.35274,-4.41011 3.41716,-6.74345 5.45648,-8.92322 5.45648,-8.92322 6.07085,-8 6.07087,-8 11.41129,-11.81324 11.41129,-11.81323 10.8691,-8.52854 10.86909,-8.52856 11.86209,-6.99155 11.86208,-6.99155 6.9355,-3.22792 6.93548,-3.2279 v -1.81394 -1.81393 l -1.90628,-0.73151 -1.90628,-0.7315 -13.17227,6.76613 -13.17227,6.76612 -10.16529,7.00723 -10.16529,7.00722 -11.33716,9.75234 -11.33718,9.75232 -9.75231,11.33717 -9.75234,11.33716 -6.91156,10.02609 -6.91154,10.02608 -5.4944,10.56092 -5.49439,10.56092 0.81797,1.32349 0.81796,1.32351 h 1.89886 1.89885 z m 26.65228,-13.39151 8.9662,-13.46828 12.78388,-13.31898 12.78388,-13.31899 11.19764,-8.40396 11.19764,-8.40397 8.52312,-4.98451 8.52312,-4.9845 v -1.74558 -1.74557 l -1.29418,-0.79984 -1.29417,-0.79984 -4.37249,2.23723 -4.3725,2.23721 -11.33333,7.7362 -11.33333,7.73619 -10.37122,8.95742 -10.3712,8.95744 -8.05065,9.45697 -8.05065,9.45698 -8.73489,12.87368 -8.73491,12.87368 0.90212,1.45965 0.90211,1.45965 h 1.78381 1.7838 z m -53.90167,-3.94534 5.59118,-10.74695 7.28828,-10.91972 7.28828,-10.91971 7.10168,-8.70953 7.10166,-8.70953 13.75304,-13.37347 13.75303,-13.37348 10,-7.33248 10,-7.33248 10,-6.137 10,-6.13698 10.33333,-5.07324 10.33333,-5.07323 v -2.37429 -2.37428 h -2.03328 -2.03329 l -9.63337,4.82773 -9.63339,4.82773 -8.92517,5.18738 -8.92518,5.18738 -13.63821,10.1499 -13.6382,10.14989 -12.79933,12.835 -12.79933,12.83499 -8.86172,11.38548 -8.86172,11.38546 -6.60898,10.65585 -6.60896,10.65586 -4.0899,8.10204 -4.0899,8.10204 1.52331,1.5233 1.52329,1.5233 h 0.99918 0.99916 z m 27.29104,-14.23095 10.40671,-15.68876 18.75636,-18.7699 18.75637,-18.7699 16.66667,-10.8464 16.66666,-10.84641 2.66667,-1.93499 2.66667,-1.93498 -1.6305,-1.67922 -1.6305,-1.6792 -3.70283,1.68506 -3.70284,1.68505 -12.66667,8.30003 -12.66666,8.30001 -12.19455,10.2352 -12.19454,10.2352 -10.955,12.34356 -10.95499,12.34356 -10.00545,15.00996 -10.00546,15.00996 1.6394,1.97536 1.6394,1.97536 1.01919,-0.6299 1.01919,-0.62989 z m -58.22982,3.97791 3.04876,-6.33334 6.74553,-11.33333 6.74553,-11.33333 11.31568,-15.13328 11.31567,-15.13328 13.96511,-13.89757 13.96512,-13.89759 15.52393,-11.67209 15.52393,-11.6721 10.66667,-6.12718 10.66666,-6.12719 11.09092,-5.56379 11.09091,-5.56378 -0.53473,-1.60607 -0.53474,-1.60608 -2.1014,-0.40771 -2.1014,-0.4077 -12.35782,6.20646 -12.35784,6.20648 -10.64392,6.60158 -10.64393,6.60157 -12.78635,9.54519 -12.78636,9.5452 -16.01376,16.05446 -16.01376,16.05447 -9.58591,12.78636 -9.58589,12.78635 -6.56708,10.5883 -6.56707,10.58831 -4.1666,8.25398 -4.1666,8.25399 v 2.03801 2.03803 h 2.40098 2.40098 z m 27.72242,-16.12279 7.43047,-11.54388 8.31837,-10.67704 8.31839,-10.67705 13.1798,-13.16143 13.17981,-13.16142 13.735,-10.31511 13.73499,-10.31511 11.23646,-6.51308 11.23647,-6.51309 0.0285,-2.33333 0.0285,-2.33334 h -2.42992 -2.42992 l -12.3288,7.66667 -12.3288,7.66667 -10.22009,7.64469 -10.22009,7.64469 -11.55271,10.65416 -11.55269,10.65416 -10.11539,12.05623 -10.11539,12.05624 -7.82101,11.6449 -7.82101,11.64492 -2.13043,4.13499 -2.13043,4.135 1.47846,1.47845 1.47844,1.47844 1.19125,-0.73622 1.19124,-0.73623 z m -53.06649,-4.97727 7.17335,-13.23327 8.42945,-12.66667 8.42944,-12.66667 9.06388,-11.32712 9.06388,-11.32712 13.33955,-13.33954 13.33954,-13.33955 11.32712,-9.06388 11.32712,-9.06388 13.31574,-8.88516 13.31573,-8.88517 17.35093,-8.90486 17.35093,-8.90483 v -1.79452 -1.79451 l -2.34682,-0.45196 -2.34683,-0.45196 -16.98651,8.84828 -16.9865,8.84826 -14.66667,9.88072 -14.66666,9.88071 -13.33334,11.1958 -13.33333,11.1958 -10.69271,11.17557 -10.69269,11.17559 -9.06824,11.25004 -9.06824,11.25003 -8.44771,12.74997 -8.4477,12.74996 -6.92406,13.02593 -6.92405,13.02593 0.80007,2.08495 0.80006,2.08495 1.66598,-0.54427 1.66596,-0.54427 z m 24.12663,-9.34605 5.96662,-10.00537 7.49436,-10.00775 7.49435,-10.00774 10.45957,-12.00591 10.45956,-12.00591 13.19567,-11.59393 13.19567,-11.59395 10.88378,-7.80046 10.88379,-7.80047 12.33333,-7.36381 12.33333,-7.3638 v -1.0058 -1.0058 l -1.75494,-1.45648 -1.75496,-1.45648 -13.70418,8.29321 -13.70418,8.29323 -13.54087,10.16945 -13.54086,10.16945 -12.40647,11.69135 -12.40648,11.69135 -10.69008,12.80586 -10.69008,12.80587 -9.05187,13.33333 -9.05186,13.33334 -2.11659,4.13498 -2.11659,4.135 1.42748,1.42748 1.42748,1.42748 1.5042,-0.61617 1.50419,-0.61618 z m -55.13713,-0.87724 4.7631,-9.45826 8.70843,-14.10919 8.70841,-14.1092 9.27361,-12.35741 9.27362,-12.3574 12.3395,-13.6426 12.33951,-13.64259 9.88216,-8.70593 9.88216,-8.70594 6.66667,-5.43036 6.66666,-5.43036 9.33334,-6.57636 9.33333,-6.57635 9.33333,-5.91934 9.33334,-5.91933 17.33333,-8.86385 17.33333,-8.86384 0.43109,-2.17083 0.43111,-2.17084 h -2.78888 -2.78888 l -17.64222,9.03368 -17.64222,9.03368 -15.33333,10.17547 -15.33333,10.17547 -14,11.2738 -14,11.27379 -16,16.57649 -16,16.57648 -10.39318,13.58431 -10.39316,13.58431 -8.62138,13.59757 -8.62139,13.59759 -6.31877,12.45526 -6.31879,12.45528 1.93634,1.21543 1.93634,1.21542 1.09686,-0.67789 1.09686,-0.67789 z m -29.33323,-13.34332 4.86312,-9.66666 8.00044,-13.33334 8.00044,-13.33333 10.13823,-14 10.13824,-14 11.66683,-13.52745 11.66686,-13.52747 12.10441,-11.39459 12.10441,-11.39458 8.91038,-7.25097 8.91037,-7.25099 12,-8.55297 12,-8.55298 9.33333,-5.88838 9.33334,-5.88839 18.66666,-9.50161 18.66667,-9.50162 0.43109,-2.21733 0.43111,-2.21733 h -2.67375 -2.67373 l -17.09069,8.61511 -17.0907,8.61512 -14.65126,9.23885 -14.65128,9.23885 -15.34872,11.78231 -15.34874,11.78229 -20.7552,20.69706 -20.75521,20.69707 -8.99208,11.33333 -8.99208,11.33334 -11.13616,16.66666 -11.13616,16.66667 -8.213,15.63795 -8.212988,15.63793 0.841799,1.36207 0.841799,1.36205 h 1.90455 1.90455 z m 56.82048,-2.27972 6.31674,-10.48544 9.80562,-13.11741 9.80561,-13.11743 11.64948,-13.0033 11.64948,-13.0033 14.34836,-12.33004 14.34835,-12.33002 11.87981,-8.46854 11.8798,-8.46853 12.33333,-7.27591 12.33333,-7.27591 v -1.84354 -1.84353 l -1.3168,-0.81383 -1.3168,-0.81382 -9.68319,5.61052 -9.6832,5.61051 -13.33334,9.02807 -13.33333,9.02807 -12.69737,10.59952 -12.69736,10.59952 -14.2826,14.90504 -14.2826,14.90504 -10.35336,13.81489 -10.35338,13.81489 -7.65242,12.32431 -7.65243,12.32431 1.41657,1.70688 1.41659,1.70686 1.56917,-0.65122 1.56919,-0.65123 z m -25.01113,-20.61362 10.14908,-15.89335 10.93931,-14.02616 10.93932,-14.02616 16.66667,-16.88604 16.66667,-16.88603 14,-11.09876 14,-11.09874 14.66666,-9.5404 14.66667,-9.54039 6.99864,-3.88865 6.99865,-3.88864 0.001,-1.70851 10e-4,-1.70852 -1.91337,-0.73422 -1.91336,-0.73423 -9.75331,5.66563 -9.75329,5.66561 -12,7.97193 -12,7.97194 -12.66667,10.08052 -12.66667,10.08051 -14.49368,14.058 -14.49366,14.058 -10.62703,12.66667 -10.62701,12.66667 -7.29052,10.31353 -7.29053,10.31355 -7.25304,11.55274 -7.25304,11.55275 1.53104,1.84479 1.53104,1.84478 1.04482,-0.37774 1.04483,-0.37774 10.14907,-15.89334 z"
       id="path24"
       inkscape:connector-curvature="0" />
  </g>
</svg>
